<svg width="215" height="80" viewBox="0 0 215 80" fill="none" xmlns="http://www.w3.org/2000/svg">
<g clip-path="url(#clip0_108_28)">
<path d="M111 26.4978L121.229 25.8354C121.463 27.511 121.89 28.7579 122.59 29.6542C123.718 31.057 125.274 31.7584 127.335 31.7584C128.852 31.7584 130.058 31.4077 130.875 30.6673C131.652 30.0828 132.119 29.1476 132.119 28.1734C132.119 27.2382 131.691 26.3419 130.952 25.7574C130.175 25.056 128.347 24.3546 125.469 23.7311C120.762 22.679 117.379 21.2762 115.395 19.4837C113.412 17.8081 112.284 15.3531 112.362 12.7423C112.362 10.9498 112.906 9.15732 113.917 7.67656C115.084 6.00097 116.679 4.67608 118.584 3.9357C120.646 3.03945 123.524 2.57184 127.141 2.57184C131.575 2.57184 134.958 3.39015 137.292 5.06575C139.626 6.70238 141.026 9.35216 141.454 12.9761L131.341 13.5606C131.069 12.0019 130.525 10.8719 129.63 10.1315C128.736 9.39113 127.569 9.04042 126.052 9.04042C124.807 9.04042 123.874 9.31319 123.252 9.81977C122.668 10.2874 122.279 10.9888 122.318 11.7681C122.318 12.3526 122.629 12.8982 123.096 13.2489C123.602 13.7165 124.807 14.1451 126.713 14.5348C131.419 15.548 134.764 16.5611 136.825 17.6132C138.887 18.6654 140.365 19.9513 141.259 21.471C142.192 23.0297 142.659 24.8222 142.62 26.6537C142.62 28.8358 141.998 31.018 140.753 32.8495C139.47 34.7589 137.681 36.2396 135.581 37.1359C133.364 38.1101 130.564 38.6167 127.219 38.6167C121.307 38.6167 117.223 37.4866 114.929 35.1875C112.634 32.8885 111.273 30.0049 111 26.4978ZM2.45025 38.0321V3.19532H20.3799C23.6858 3.19532 26.2527 3.46809 28.0029 4.0526C29.7142 4.59814 31.231 5.72819 32.2422 7.24792C33.3701 8.92352 33.9146 10.8719 33.8757 12.8982C33.9924 16.3273 32.2422 19.6006 29.2475 21.3151C28.0807 21.9776 26.7972 22.4452 25.4749 22.679C26.4472 22.9518 27.4195 23.4194 28.2751 23.9649C28.9363 24.5105 29.4808 25.1339 29.9864 25.7964C30.5698 26.4588 31.0754 27.1992 31.5033 27.9786L36.7149 38.0711H24.5025L18.7464 27.3551C18.0074 25.9912 17.3851 25.095 16.8017 24.6663C16.0239 24.1208 15.0904 23.848 14.157 23.848H13.2236V37.9932H2.45025V38.0321ZM13.2236 17.3015H17.7741C18.7464 17.2236 19.6798 17.0677 20.6132 16.8339C21.3133 16.717 21.9356 16.3273 22.3634 15.7428C23.4135 14.34 23.258 12.3526 21.9745 11.1447C21.2744 10.5601 19.9132 10.2484 17.9685 10.2484H13.2236V17.3015ZM0 67.8811L10.2288 67.2187C10.4622 68.8943 10.89 70.1412 11.5901 71.0375C12.6791 72.4403 14.2737 73.1807 16.335 73.1807C17.8518 73.1807 19.0575 72.83 19.8743 72.0896C20.6521 71.4661 21.1188 70.5699 21.1188 69.5957C21.1188 68.6605 20.691 67.7642 19.9521 67.1797C19.1742 66.4783 17.3462 65.7769 14.4293 65.1534C9.72323 64.1013 6.33954 62.6985 4.35601 60.906C2.37247 59.2304 1.24457 56.7754 1.32236 54.1646C1.32236 52.3721 1.86686 50.5796 2.87808 49.0989C4.04486 47.4233 5.63947 46.0984 7.54522 45.358C9.60655 44.4618 12.4846 43.9941 16.1017 43.9941C20.5355 43.9941 23.9191 44.8125 26.2527 46.4881C28.5863 48.1637 29.9475 50.7745 30.3754 54.3984L20.2632 54.9829C19.991 53.4242 19.4465 52.2942 18.5519 51.5538C17.6963 50.8134 16.4906 50.4627 14.9738 50.5017C13.7292 50.5017 12.7958 50.7745 12.1735 51.32C11.5512 51.7876 11.2012 52.489 11.2401 53.2684C11.2401 53.8529 11.5512 54.3984 12.0179 54.7491C12.5235 55.2167 13.7292 55.6454 15.635 56.0351C20.341 57.0482 23.6858 58.0614 25.7471 59.1135C27.8084 60.1656 29.2864 61.4515 30.1809 62.9713C31.1143 64.5299 31.581 66.3224 31.581 68.1149C31.581 70.2971 30.9199 72.4403 29.7142 74.2718C28.4307 76.1812 26.6416 77.662 24.5414 78.5582C22.3245 79.5324 19.5242 80.039 16.1794 80.039C10.2677 80.039 6.18397 78.9089 3.88929 76.6098C1.59461 74.2718 0.311143 71.3882 0 67.8811H0Z" fill="black"/>
<path d="M51.7276 65.1534L61.1397 67.998C60.634 70.375 59.5839 72.6352 58.1449 74.6225C56.8225 76.376 55.0724 77.7399 53.0888 78.6361C51.0664 79.5324 48.4995 80 45.388 80C41.6154 80 38.504 79.4544 36.1315 78.3634C33.7202 77.2723 31.6588 75.3239 29.9087 72.5572C28.1585 69.7905 27.3028 66.2445 27.3028 61.9191C27.3028 56.152 28.8197 51.7097 31.8922 48.6313C34.9647 45.5528 39.2818 43.9941 44.8824 43.9941C49.2773 43.9941 52.6999 44.8904 55.2279 46.6439C57.7171 48.4364 59.5839 51.1641 60.8285 54.8271L51.3386 56.9313C51.1053 56.113 50.7553 55.2947 50.2885 54.5933C49.7051 53.775 48.9662 53.1515 48.0716 52.6839C47.1771 52.2163 46.1659 52.0214 45.1547 52.0214C42.7044 52.0214 40.8376 52.9956 39.5541 54.9829C38.5818 56.4247 38.0762 58.7238 38.0762 61.8412C38.0762 65.699 38.6596 68.3487 39.8263 69.7905C40.9931 71.2323 42.6266 71.9337 44.7657 71.9337C46.8271 71.9337 48.3828 71.3492 49.4329 70.2192C50.483 69.0112 51.2609 67.3356 51.7276 65.1534ZM73.7021 44.5787H84.4365V56.7754H96.1822V44.5787H106.994V79.4155H96.1822V65.3093H84.4365V79.4155H73.7021V44.5787V44.5787Z" fill="black"/>
<path d="M105.516 61.9971C105.516 56.3079 107.111 51.8656 110.261 48.7092C113.412 45.5529 117.846 43.9552 123.485 43.9552C129.28 43.9552 133.714 45.5139 136.864 48.6313C140.014 51.7487 141.57 56.113 141.57 61.7243C141.57 65.8159 140.87 69.1281 139.509 71.7389C138.187 74.3108 136.125 76.415 133.597 77.8178C130.991 79.2596 127.763 80 123.913 80C119.985 80 116.757 79.3765 114.19 78.1296C111.545 76.8047 109.367 74.7394 107.928 72.2065C106.333 69.4788 105.516 66.0887 105.516 61.9971ZM116.251 62.0361C116.251 65.5431 116.912 68.076 118.196 69.6347C119.479 71.1544 121.268 71.9338 123.524 71.9338C125.819 71.9338 127.608 71.1934 128.891 69.6737C130.175 68.1539 130.797 65.4652 130.797 61.5684C130.797 58.2952 130.136 55.8792 128.813 54.3985C127.491 52.8787 125.702 52.1383 123.446 52.1383C121.463 52.0604 119.557 52.9177 118.234 54.4374C116.912 55.9571 116.251 58.49 116.251 62.0361V62.0361ZM152.577 61.9971C152.577 56.3079 154.171 51.8656 157.322 48.7092C160.472 45.5529 164.906 43.9552 170.545 43.9552C176.34 43.9552 180.813 45.5139 183.925 48.6313C187.036 51.7487 188.631 56.113 188.631 61.7243C188.631 65.8159 187.931 69.1281 186.569 71.7389C185.247 74.3108 183.186 76.415 180.658 77.8178C178.052 79.2596 174.824 80 170.973 80C167.045 80 163.817 79.3765 161.25 78.1296C158.605 76.8047 156.427 74.7394 154.988 72.2065C153.394 69.4788 152.577 66.0887 152.577 61.9971V61.9971ZM163.311 62.0361C163.311 65.5431 163.972 68.076 165.256 69.6347C166.539 71.1544 168.329 71.9338 170.584 71.9338C172.879 71.9338 174.668 71.1934 175.952 69.6737C177.235 68.1539 177.857 65.4652 177.857 61.5684C177.857 58.2952 177.196 55.8792 175.874 54.3985C174.551 52.8787 172.762 52.1383 170.507 52.1383C168.523 52.0604 166.578 52.9177 165.295 54.4374C163.972 55.9571 163.311 58.49 163.311 62.0361V62.0361Z" fill="black"/>
<path d="M187.503 44.5787H198.237V70.8427H215V79.4155H187.464V44.5787H187.503Z" fill="black"/>
<path d="M175.671 42.5682C186.478 34.4085 189.811 20.5763 183.115 11.6733C176.418 2.77033 162.229 2.16782 151.421 10.3276C140.614 18.4873 137.282 32.3195 143.978 41.2225C150.674 50.1255 164.864 50.728 175.671 42.5682Z" fill="white"/>
<path d="M175.671 42.5682C186.478 34.4085 189.811 20.5763 183.115 11.6733C176.418 2.77033 162.229 2.16782 151.421 10.3276C140.614 18.4873 137.282 32.3195 143.978 41.2225C150.674 50.1255 164.864 50.728 175.671 42.5682Z" fill="white"/>
<path d="M175.671 42.5682C186.478 34.4085 189.811 20.5763 183.115 11.6733C176.418 2.77033 162.229 2.16782 151.421 10.3276C140.614 18.4873 137.282 32.3195 143.978 41.2225C150.674 50.1255 164.864 50.728 175.671 42.5682Z" stroke="black" stroke-width="4" stroke-miterlimit="10"/>
<path d="M152.616 23.887L156.505 21.1593L161.289 27.9786C162.106 29.0696 162.728 30.2387 163.195 31.5246C163.467 32.4988 163.389 33.5509 163 34.4861C162.495 35.6551 161.678 36.6293 160.589 37.3307C159.305 38.227 158.216 38.7336 157.283 38.8894C156.388 39.0453 155.455 38.8894 154.599 38.4997C153.666 38.0321 152.849 37.3697 152.227 36.5124L155.572 33.395C155.844 33.8237 156.194 34.2133 156.583 34.5251C156.855 34.7199 157.166 34.8368 157.516 34.8368C157.789 34.8368 158.061 34.7199 158.255 34.564C158.644 34.3302 158.916 33.8626 158.878 33.395C158.761 32.7326 158.489 32.0701 158.061 31.5636L152.616 23.887V23.887ZM164.284 28.2124L167.823 25.4067C168.212 25.8743 168.717 26.225 169.262 26.4199C170.04 26.6537 170.857 26.4978 171.518 25.9912C171.984 25.6795 172.373 25.2508 172.529 24.7053C172.762 24.0039 172.373 23.2245 171.673 22.9907C171.557 22.9518 171.44 22.9128 171.323 22.9128C170.857 22.8738 170.04 23.0687 168.834 23.5752C166.851 24.3936 165.295 24.7053 164.128 24.5884C163 24.4715 161.95 23.887 161.328 22.9128C160.861 22.2504 160.628 21.471 160.589 20.6917C160.589 19.7954 160.822 18.8992 161.328 18.1588C162.067 17.1067 162.961 16.2104 164.05 15.509C165.684 14.3789 167.123 13.8334 168.367 13.8334C169.612 13.8334 170.779 14.4179 171.868 15.6259L168.367 18.3926C167.667 17.4963 166.345 17.3015 165.45 18.0029L165.334 18.1198C164.945 18.3536 164.673 18.7043 164.517 19.133C164.4 19.4447 164.478 19.7954 164.673 20.0682C164.828 20.263 165.062 20.4189 165.334 20.4189C165.645 20.4579 166.189 20.302 166.967 19.9513C168.912 19.133 170.39 18.6654 171.401 18.5095C172.257 18.3536 173.151 18.4316 173.968 18.7823C174.707 19.094 175.329 19.6395 175.757 20.302C176.302 21.0813 176.613 22.0166 176.652 22.9907C176.69 24.0039 176.418 24.9781 175.874 25.8354C175.174 26.8875 174.279 27.7837 173.229 28.4851C171.09 29.9659 169.34 30.5894 167.94 30.3556C166.423 30.1218 165.178 29.3424 164.284 28.2124V28.2124Z" fill="black"/>
</g>
<defs>
<clipPath id="clip0_108_28">
<rect width="215" height="80" fill="white"/>
</clipPath>
</defs>
</svg>
